<svg width="100" height="100" viewBox="0 0 100 100" xmlns="http://www.w3.org/2000/svg"><circle fill="#0079CA" cx="50" cy="50" r="50"/><path d="M44.008 73.99l3.014-18.117s-6.432.002-9.08 0c-1.88-.002-2.444-.887-1.477-2.479 3.806-6.26 7.634-12.507 11.454-18.758 1.55-2.536 3.127-5.056 4.633-7.617.397-.675.712-1.019 1.594-1.019h1.785c-.312 1.9-.56 3.816-.867 5.592A1873.42 1873.42 0 0 1 53 43.34c-.129.718.213.867.825.865 2.647-.01 5.295-.009 7.942-.01.268 0 .537-.016.803.008 1.313.116 1.804 1.04 1.125 2.157a3115.983 3115.983 0 0 1-6.12 10.018c-3.35 5.47-6.725 10.925-10.04 16.416-.487.806-.82 1.155-1.972 1.206l-1.555-.01z" fill="#FFF"/></svg>