<svg width="100" height="100" viewBox="0 0 100 100" xmlns="http://www.w3.org/2000/svg"><circle fill="#FE4C5C" cx="50" cy="50" r="50"/><path d="M67.645 61.985c0 1.087.016 2.175-.005 3.262-.016.84-.319 1.58-1.066 2.01a2.79 2.79 0 0 1-1.399.388c-2.143-.007-4.288.008-6.432-.01-.717-.005-1.34-.278-1.86-.798-6.291-6.3-12.588-12.597-18.884-18.893-1.4-1.4-2.798-2.802-4.2-4.2a2.615 2.615 0 0 1-.783-1.895c-.014-2.124-.018-4.247.003-6.37.008-.817.258-1.58.996-2.02.395-.235.889-.417 1.342-.427 2.236-.042 4.473-.04 6.71-.008.745.011 1.354.408 1.883.943 1.935 1.959 3.881 3.905 5.827 5.852 1.274 1.274 2.558 2.538 3.832 3.812 1.295 1.296 2.582 2.601 3.878 3.897 1.471 1.47 2.95 2.932 4.423 4.401 1.641 1.637 3.275 3.28 4.918 4.914.56.556.82 1.22.817 2.003-.005 1.046 0 2.092 0 3.139zm-34.64-.858c0-1.343-.015-2.687.006-4.03.013-.866.336-1.639 1.114-2.048.504-.264 1.066-.455 1.725-.198.535.208.934.52 1.315.9 2.68 2.674 5.354 5.353 8.034 8.025.472.471.752 1.042.716 1.694-.043.767-.4 1.44-1.077 1.824a2.78 2.78 0 0 1-1.38.355c-2.644-.012-5.291.005-7.937-.012-.839-.006-1.597-.27-2.092-1.004a2.481 2.481 0 0 1-.425-1.413c.003-1.365 0-2.729 0-4.093zm34.635-21.6c0 1.345.016 2.69-.006 4.033-.013.84-.321 1.599-1.064 2.02-.577.326-1.2.532-1.938.19-.574-.266-.95-.683-1.358-1.1-.946-.964-1.858-1.963-2.818-2.915-1.484-1.473-2.999-2.915-4.496-4.375-.307-.3-.651-.583-.872-.94-.374-.6-.557-1.235-.203-1.959.184-.378.373-.713.703-.968a2.31 2.31 0 0 1 1.408-.491c2.77-.018 5.541-.032 8.31.006.796.011 1.548.326 1.95 1.071.214.398.35.884.366 1.335.046 1.363.016 2.729.016 4.094h.002z" fill="#FFF"/></svg>