<svg width="100" height="100" viewBox="0 0 100 100" xmlns="http://www.w3.org/2000/svg"><circle fill="#FFFC00" cx="50" cy="50" r="50"/><path d="M50.387 31h-.099l-.693.007c-1.65 0-7.242.465-9.88 6.443-.887 2.012-.675 5.428-.504 8.174l.06.984c-.137.077-.386.172-.779.172-.524 0-1.142-.168-1.84-.498a1.464 1.464 0 0 0-.633-.131c-.816 0-1.792.542-1.945 1.351-.109.583.149 1.432 2.001 2.172.167.067.368.131.58.2.766.245 1.923.616 2.237 1.363.163.387.098.886-.192 1.482a.377.377 0 0 0-.019.04c-.102.24-2.55 5.881-7.987 6.785a.838.838 0 0 0-.693.875c.007.127.037.253.089.376.408.964 2.13 1.67 5.262 2.162.105.143.214.65.28.957.067.304.134.618.23.949.095.325.34.714.97.714.255 0 .556-.06.904-.128.522-.104 1.237-.245 2.132-.245.496 0 1.01.044 1.529.13 1.01.17 1.87.784 2.865 1.495C45.686 67.847 47.3 69 49.752 69c.068 0 .136-.002.202-.007.08.004.183.007.293.007 2.453 0 4.067-1.153 5.49-2.17.997-.712 1.856-1.326 2.867-1.495a9.235 9.235 0 0 1 1.528-.131c.854 0 1.53.11 2.132.229.378.074.682.112.903.112l.024.001h.022c.466 0 .795-.25.925-.7.095-.324.163-.63.23-.94.066-.307.174-.81.279-.953 3.134-.491 4.854-1.197 5.262-2.156.052-.124.082-.251.09-.38a.837.837 0 0 0-.694-.873c-5.438-.905-7.885-6.546-7.986-6.786l-.019-.04c-.29-.596-.355-1.094-.193-1.48.315-.748 1.47-1.12 2.236-1.365.214-.069.416-.133.581-.2 1.356-.54 2.036-1.205 2.022-1.974-.011-.604-.477-1.144-1.218-1.411h-.002a2.204 2.204 0 0 0-.834-.162c-.198 0-.492.027-.766.156-.645.306-1.224.471-1.725.494-.33-.016-.547-.1-.671-.168l.052-.866.007-.116c.171-2.747.384-6.166-.504-8.179C57.645 31.465 52.042 31 50.387 31"/><path d="M50.387 31.838c1.507 0 6.695.409 9.14 5.95.806 1.825.6 5.13.435 7.786-.027.421-.053.83-.073 1.22l-.009.167.11.125c.045.05.464.492 1.395.529h.03c.616-.023 1.31-.216 2.063-.573a.997.997 0 0 1 .414-.078c.178 0 .366.033.523.1l.023.01c.395.139.674.403.679.641.002.136-.098.62-1.498 1.18a8.68 8.68 0 0 1-.525.179c-.91.293-2.286.733-2.75 1.835-.261.623-.19 1.355.212 2.18.165.39 2.764 6.308 8.614 7.283a.271.271 0 0 1-.023.094c-.1.237-.73 1.051-4.651 1.662-.614.096-.765.791-.94 1.6-.061.29-.126.58-.214.882-.027.092-.031.098-.13.098h-.045c-.173 0-.438-.038-.744-.098a11.347 11.347 0 0 0-2.29-.244c-.543 0-1.103.047-1.665.141-1.2.202-2.176.9-3.21 1.638-1.388.992-2.822 2.017-5.01 2.017-.096 0-.189-.003-.283-.008l-.025-.001-.025.002a1.832 1.832 0 0 1-.163.007c-2.188 0-3.623-1.025-5.011-2.016-1.033-.74-2.01-1.437-3.209-1.639a10.088 10.088 0 0 0-1.664-.141c-.973 0-1.735.15-2.291.26-.306.06-.57.112-.744.112-.142 0-.145-.008-.175-.112a12.82 12.82 0 0 1-.215-.89c-.174-.809-.325-1.508-.939-1.603-3.92-.612-4.551-1.429-4.65-1.665a.28.28 0 0 1-.024-.096c5.85-.974 8.448-6.892 8.613-7.283.403-.825.473-1.557.212-2.179-.462-1.102-1.838-1.543-2.749-1.836a8.32 8.32 0 0 1-.525-.18c-1.183-.471-1.546-.947-1.492-1.235.063-.332.633-.67 1.13-.67.112 0 .209.018.282.053.807.382 1.545.576 2.191.576 1.017 0 1.47-.478 1.517-.533l.11-.124-.008-.166a98.05 98.05 0 0 0-.073-1.22c-.165-2.655-.37-5.959.434-7.783 2.436-5.521 7.6-5.947 9.124-5.947l.7-.006h.09" fill="#FFF"/></svg>