<svg width="100" height="100" viewBox="0 0 100 100" xmlns="http://www.w3.org/2000/svg"><circle fill="#1EA1F1" cx="50" cy="50" r="50"/><path d="M42.151 68c16.981 0 26.27-13.851 26.27-25.864 0-.393 0-.785-.028-1.174A18.612 18.612 0 0 0 73 36.256a18.654 18.654 0 0 1-5.303 1.431 9.152 9.152 0 0 0 4.058-5.028 18.685 18.685 0 0 1-5.862 2.207c-3.496-3.662-9.345-3.838-13.064-.395a9.01 9.01 0 0 0-2.67 8.684c-7.424-.366-14.34-3.818-19.028-9.497-2.45 4.154-1.199 9.467 2.859 12.135a9.28 9.28 0 0 1-4.19-1.138v.115c.001 4.327 3.098 8.053 7.407 8.911a9.368 9.368 0 0 1-4.17.156c1.21 3.702 4.676 6.24 8.626 6.312A18.711 18.711 0 0 1 28 63.916a26.419 26.419 0 0 0 14.151 4.076" fill="#FFF"/></svg>